<svg xmlns="http://www.w3.org/2000/svg" viewBox="0 0 987.45 1762.86"><defs><style>.cls-1{fill:#282e46;}.cls-2{fill:#e3f4fc;}</style></defs><g id="Layer_2" data-name="Layer 2"><g id="Layer_1-2" data-name="Layer 1"><path class="cls-1" d="M0,582.7V469.49c0-6.84-.67-6,5.72-6H8.49a1.6,1.6,0,0,0,1.76-1.42,1.7,1.7,0,0,0,0-.22c.06-.91.07-1.83.07-2.75V417.19q0-1.38-.06-2.76a1.58,1.58,0,0,0-1.52-1.64,1,1,0,0,0-.25,0c-2.2,0-4.41,0-6.61-.06a1.6,1.6,0,0,1-1.78-1.36,1.93,1.93,0,0,1,0-.24C0,410,0,408.94,0,407.84V295.89c.09-1.92.42-2.3,2.22-2.35,2-.07,4,0,6.06-.06a1.85,1.85,0,0,0,2-1.68,1.77,1.77,0,0,0,0-.4V148C10.19,81.35,54.59,25,114.3,6.59A142.82,142.82,0,0,1,156.05,0H827.77A147.74,147.74,0,0,1,974,119.06a143.33,143.33,0,0,1,2.7,28.49q-.09,69.48,0,139v5c0,1.35.84,1.94,2.12,2a10.09,10.09,0,0,1,1.1,0c2.3.28,5.12-1.05,6.78.88,1.41,1.64.5,4.25.5,6.43v289c0,7.51,1,6.91-6.63,6.92a10.82,10.82,0,0,0-2.72.25,2,2,0,0,0-1.07,1.07,4.7,4.7,0,0,0-.13,1.63V1613.88a148.47,148.47,0,0,1-8.37,50.29c-18.49,52-62.8,86.42-110.21,95.69a162.71,162.71,0,0,1-31.22,3H158.43c-26.85,0-52-6.59-75.07-20.45-38.12-23-61.63-56.44-70.55-100a140.52,140.52,0,0,1-2.56-28.5V585.77c-.07-3-.08-3-3.15-3.09C5,582.67,2.8,582.7,0,582.7ZM939.63,881.55V150.36a128,128,0,0,0-.89-16.5c-3.22-24.25-13.18-45.42-30.29-62.94-22.16-22.68-49.32-34-81-34q-333.89-.08-667.77,0a119.33,119.33,0,0,0-20.83,1.86,111.13,111.13,0,0,0-86.6,76.79c-3.51,11.53-4.76,23.31-4.76,35.35q.06,730.08,0,1460.16v5.52a106.16,106.16,0,0,0,2.4,21.31,111.21,111.21,0,0,0,73.94,82.18c12.17,4,24.64,5.47,37.43,5.47q332.24-.09,664.46,0h5.52a99.33,99.33,0,0,0,19.68-2.15,111.19,111.19,0,0,0,82.52-72.1,119.17,119.17,0,0,0,6.21-39.54Q939.62,1246.58,939.63,881.55Z"/><path class="cls-2" d="M493.39,163.56H596.47a47.76,47.76,0,0,0,10.4-.93c17.31-3.84,30.46-18.41,32.29-35.5a41.4,41.4,0,0,0-25-43.1A43.8,43.8,0,0,0,597,80.75q-65,.07-130.09,0H390.27a40.18,40.18,0,0,0-9.84.9c-17.16,4.21-28.21,14.81-31.84,32.05-3.6,17,2.13,31.17,15.89,41.8a39.27,39.27,0,0,0,24.68,8Q441.29,163.51,493.39,163.56Z"/><path class="cls-1" d="M493.39,163.56H389.21a39.27,39.27,0,0,1-24.68-8c-13.76-10.63-19.49-24.77-15.89-41.8,3.63-17.24,14.68-27.84,31.84-32.05a40.18,40.18,0,0,1,9.84-.9H597a43.8,43.8,0,0,1,17.18,3.28,41.4,41.4,0,0,1,25,43.1c-1.83,17.09-15,31.66-32.29,35.5a47.76,47.76,0,0,1-10.4.93Z"/></g></g></svg>