<svg xmlns="http://www.w3.org/2000/svg" viewBox="0 0 263.85 195.76"><defs><style>.cls-1{fill:#e58cba;}</style></defs><g id="Layer_2" data-name="Layer 2"><g id="Layer_1-2" data-name="Layer 1"><path class="cls-1" d="M87.46,74.7a17.2,17.2,0,0,0,0,24.31l37.76,37.75a6.93,6.93,0,0,1,2,4.88v47.22a6.89,6.89,0,0,1-11.77,4.87L14.05,92.32a48,48,0,0,1,0-67.89L24.44,14.06a48,48,0,0,1,67.88,0L126.76,48.5l.48.48V66.12A6.89,6.89,0,0,1,115.48,71h0a17.17,17.17,0,0,0-24.3,0Z"/><path class="cls-1" d="M176.4,74.7a17.2,17.2,0,0,1,0,24.31l-37.76,37.75a6.93,6.93,0,0,0-2,4.88v47.22a6.89,6.89,0,0,0,11.76,4.87L249.8,92.32a48,48,0,0,0,0-67.89L239.42,14.06a48,48,0,0,0-67.88,0L137.09,48.5l-.47.48V66.12A6.89,6.89,0,0,0,148.38,71h0a17.17,17.17,0,0,1,24.3,0Z"/></g></g></svg>